<?xml version="1.0" standalone="no"?>
<!DOCTYPE svg PUBLIC "-//W3C//DTD SVG 20010904//EN"
 "http://www.w3.org/TR/2001/REC-SVG-20010904/DTD/svg10.dtd">
<svg version="1.0" xmlns="http://www.w3.org/2000/svg"
 width="1024.000000pt" height="1024.000000pt" viewBox="0 0 1024.000000 1024.000000"
 preserveAspectRatio="xMidYMid meet">
<metadata>
Bruh, don't in here! Super secret, you know?
    However, since you are here, I am going to let you in on a little secret.
    This bot was intended to try to come up with solution how to pay your debt and much more!
    However, I am too lazy and it's too much work for a damn internship...
</metadata>
<g transform="translate(0.000000,1024.000000) scale(0.100000,-0.100000)"
fill="#000000" stroke="none">
<path d="M7335 9543 c-116 -9 -158 -23 -363 -120 -74 -35 -137 -63 -140 -63
-4 0 -19 -6 -34 -14 -14 -8 -43 -19 -65 -26 -36 -11 -63 -22 -135 -55 -70 -31
-236 -97 -289 -115 -30 -11 -100 -38 -155 -60 -54 -23 -135 -54 -179 -69 -44
-16 -105 -40 -135 -55 -30 -14 -104 -42 -165 -61 -60 -20 -124 -43 -142 -51
-17 -8 -36 -14 -42 -14 -7 0 -31 -9 -54 -20 -23 -11 -80 -31 -127 -45 -47 -13
-110 -33 -141 -44 -61 -22 -108 -17 -179 19 -21 11 -70 28 -110 39 -40 11 -77
24 -84 30 -6 5 -42 18 -81 29 -78 23 -349 117 -366 127 -6 4 -59 24 -117 45
-208 74 -681 260 -829 326 -17 8 -34 14 -38 14 -4 0 -19 8 -33 18 -67 45 -274
111 -445 142 -86 16 -181 6 -275 -27 -63 -23 -77 -32 -104 -71 -42 -61 -95
-188 -121 -292 -22 -84 -22 -97 -22 -840 0 -539 4 -786 13 -865 7 -60 17 -157
22 -215 23 -243 88 -594 145 -780 47 -154 60 -192 97 -270 22 -46 47 -103 56
-125 9 -22 33 -65 54 -95 21 -30 62 -91 92 -135 29 -44 102 -131 162 -194 60
-62 120 -134 134 -160 48 -89 29 -242 -61 -501 -17 -47 -35 -94 -41 -105 -6
-11 -19 -45 -29 -75 -10 -30 -33 -95 -52 -145 -57 -151 -96 -269 -112 -341 -9
-38 -20 -80 -24 -94 -12 -34 -48 -157 -58 -200 -8 -34 -10 -35 -68 -41 -198
-20 -370 -81 -525 -184 -88 -59 -98 -69 -151 -150 -122 -188 -125 -345 -13
-715 14 -47 40 -144 59 -216 18 -72 44 -164 58 -205 14 -41 31 -99 37 -129 7
-30 24 -93 37 -140 14 -47 33 -115 43 -151 9 -37 20 -71 24 -77 3 -6 20 -64
37 -129 35 -135 93 -336 109 -379 7 -16 22 -67 35 -114 60 -221 73 -259 98
-303 71 -121 245 -222 461 -268 99 -21 103 -21 2125 -20 l2026 0 90 25 c154
44 265 108 361 208 64 66 69 78 269 723 26 83 57 182 70 220 13 39 49 156 80
260 31 105 65 215 75 245 10 30 32 98 48 150 17 52 49 156 72 230 24 74 49
161 56 192 8 32 21 86 29 121 35 148 11 344 -54 446 -63 98 -222 223 -347 273
-50 20 -180 45 -286 54 l-78 6 -34 112 c-19 61 -42 140 -51 176 -26 97 -46
172 -55 200 -4 14 -18 59 -30 100 -24 85 -134 434 -156 495 -23 65 -52 186
-64 261 -26 166 37 325 239 604 88 121 239 495 290 715 84 370 102 577 108
1270 2 303 8 694 11 870 8 346 5 407 -29 511 -41 128 -117 224 -212 268 -33
15 -164 48 -177 44 -3 -1 -23 -3 -45 -5z m-4363 -242 c97 -23 152 -42 223 -76
43 -21 274 -115 555 -226 146 -58 314 -119 327 -119 7 0 53 -16 101 -36 48
-20 168 -64 267 -99 99 -34 230 -82 290 -104 61 -23 128 -48 150 -56 22 -8 89
-21 149 -29 67 -9 112 -19 117 -27 5 -8 9 -104 8 -214 -1 -219 0 -223 81 -535
21 -80 61 -242 89 -360 29 -118 91 -374 139 -567 55 -225 83 -356 77 -362 -6
-5 -61 -11 -124 -15 -101 -5 -113 -4 -107 10 3 8 6 33 6 54 0 33 4 39 29 48
37 13 50 39 40 77 -15 55 -124 95 -259 95 -135 0 -244 -40 -259 -95 -10 -38 3
-64 40 -77 25 -9 29 -15 29 -48 0 -21 3 -46 6 -55 6 -14 -4 -15 -92 -10 -55 3
-114 8 -132 11 -46 7 -82 -17 -82 -55 0 -16 7 -34 15 -41 8 -7 83 -22 166 -34
l151 -22 -6 63 -7 63 46 0 c38 0 51 -6 85 -36 l40 -36 40 36 c34 30 47 36 85
36 l46 0 -7 -63 -6 -63 146 21 146 21 10 -30 c5 -17 50 -196 100 -398 50 -202
93 -375 97 -384 6 -16 -18 -16 -323 -10 -519 10 -693 16 -934 31 -453 30 -795
63 -955 94 -259 50 -325 70 -411 129 -76 52 -126 105 -208 221 -74 105 -91
138 -148 291 -72 193 -97 276 -119 391 -12 63 -26 123 -30 134 -4 11 -16 61
-25 110 -9 50 -18 99 -20 110 -2 11 -13 99 -25 195 -21 163 -22 229 -26 960
-5 844 -4 860 46 959 69 135 167 168 363 122z m4337 -376 c34 -11 66 -30 95
-58 43 -41 43 -43 36 -92 -14 -97 -74 -457 -96 -570 -16 -84 -71 -405 -79
-458 -7 -53 -9 -53 -72 0 -44 37 -126 99 -236 179 -43 31 -84 65 -90 75 -7 11
-16 19 -20 19 -13 0 -93 57 -177 125 -41 33 -101 80 -133 104 l-58 44 53 46
c29 25 92 82 139 126 47 44 137 127 200 185 63 58 128 119 145 136 17 18 62
59 99 93 78 68 99 74 194 46z m-429 -1665 l0 -180 -600 0 -600 0 0 180 0 180
600 0 600 0 0 -180z m-3442 -2119 c43 -11 129 -29 192 -40 63 -12 133 -26 155
-31 72 -17 327 -49 520 -65 105 -8 244 -20 310 -26 66 -5 269 -12 450 -16 340
-5 561 3 825 33 225 25 230 24 250 -11 19 -34 52 -142 71 -230 7 -33 14 -67
16 -75 2 -8 9 -72 15 -142 13 -143 2 -343 -27 -463 -47 -201 -71 -286 -95
-340 -15 -33 -33 -76 -40 -95 -21 -52 -108 -217 -149 -280 -19 -30 -42 -70
-51 -88 -8 -17 -103 -121 -211 -230 -108 -108 -209 -217 -225 -242 -16 -25
-54 -99 -86 -165 -32 -66 -63 -127 -68 -137 -20 -35 -75 -187 -98 -273 -25
-89 -25 -96 -29 -552 l-4 -463 -817 -2 c-1321 -5 -1288 -5 -1357 16 -77 24
-120 50 -199 119 -110 97 -130 148 -326 837 -50 173 -72 247 -103 340 -14 41
-33 102 -41 135 -19 74 -83 275 -95 295 -8 14 -42 128 -91 306 -29 103 -23
151 30 233 48 75 58 84 153 149 106 73 196 112 297 128 112 18 117 18 126 -8
4 -13 21 -54 39 -93 18 -38 41 -95 50 -125 10 -30 35 -92 56 -138 22 -45 39
-84 39 -87 0 -2 14 -34 30 -70 17 -36 30 -68 30 -70 0 -2 11 -28 24 -57 13
-29 65 -154 116 -278 50 -124 105 -254 122 -290 16 -36 51 -121 78 -190 78
-202 82 -209 168 -310 40 -47 159 -114 239 -135 42 -11 112 -15 261 -15 238 0
324 14 370 60 16 15 37 29 48 32 27 5 81 100 95 166 18 88 8 277 -18 335 -34
73 -86 130 -150 163 -49 25 -72 30 -150 32 l-93 4 0 -86 0 -86 68 0 c90 0 133
-21 149 -75 18 -61 16 -259 -2 -295 -30 -58 -50 -62 -328 -58 -238 3 -254 4
-293 25 -70 37 -148 148 -170 240 -4 16 -22 60 -40 98 -46 100 -159 362 -188
437 -13 34 -42 103 -65 151 -22 49 -41 90 -41 92 0 3 -167 398 -190 450 -29
65 -74 172 -86 207 -12 34 -12 44 2 76 8 20 37 108 63 197 86 280 168 524 239
710 26 66 121 326 137 373 6 15 2 16 93 -7z m4177 -1407 c34 -16 40 -23 39
-49 -1 -16 -12 -51 -25 -76 -69 -134 -147 -297 -154 -319 -4 -14 -29 -68 -55
-120 -26 -52 -53 -113 -60 -134 -7 -22 -36 -83 -64 -136 -29 -53 -63 -125 -76
-161 -12 -35 -36 -89 -51 -119 -16 -30 -40 -84 -55 -120 -14 -36 -51 -117 -81
-180 -31 -63 -61 -131 -68 -151 -37 -103 -95 -170 -209 -238 -123 -75 -171
-84 -416 -79 -192 4 -209 6 -266 29 -77 32 -153 91 -188 145 -15 23 -36 79
-48 125 -19 76 -20 94 -11 189 15 156 71 253 177 307 54 28 170 47 223 37 l33
-6 0 -79 0 -79 -37 0 c-21 0 -63 -13 -93 -28 -82 -41 -120 -109 -120 -218 0
-94 35 -154 115 -197 37 -20 58 -22 242 -25 l203 -3 51 27 c28 16 66 46 84 67
32 37 114 193 140 267 7 19 33 76 58 125 24 50 48 101 52 115 4 14 33 79 65
145 32 66 73 156 91 200 18 44 41 91 50 105 9 14 26 52 38 85 12 33 49 114 80
180 59 120 85 177 135 290 47 105 50 108 110 103 28 -2 70 -13 91 -24z"/>
<path d="M2902 8910 c-32 -8 -102 -50 -123 -76 -11 -14 -9 -35 21 -239 6 -38
12 -86 14 -105 2 -19 9 -62 14 -95 6 -33 16 -96 22 -140 6 -44 13 -91 16 -105
2 -14 11 -63 19 -110 8 -47 19 -105 24 -130 5 -25 15 -78 21 -117 7 -40 15
-73 20 -73 9 0 161 109 306 220 54 41 121 91 148 110 28 20 80 60 116 89 36
29 74 57 85 61 11 5 38 24 60 43 l39 34 -29 35 c-17 19 -46 46 -65 60 -40 30
-137 117 -325 293 -283 265 -288 268 -383 245z"/>
<path d="M3160 7260 l0 -180 600 0 600 0 0 180 0 180 -600 0 -600 0 0 -180z"/>
<path d="M5055 4713 c-121 -14 -247 -80 -355 -185 -59 -58 -84 -92 -118 -161
-60 -121 -78 -213 -63 -328 20 -158 71 -262 184 -373 78 -77 111 -97 272 -165
82 -35 250 -33 354 4 119 43 211 100 283 176 72 76 132 185 154 279 4 19 8 37
9 40 15 57 15 127 1 187 -40 165 -92 260 -197 359 -141 132 -325 191 -524 167z
m145 -238 c0 -43 1 -44 38 -50 69 -12 102 -26 102 -43 0 -20 -19 -92 -25 -92
-2 0 -31 7 -65 16 -70 18 -119 13 -145 -15 -32 -36 -11 -59 98 -111 57 -26
115 -62 132 -79 28 -30 30 -38 30 -104 0 -92 -22 -125 -106 -164 l-59 -28 0
-47 0 -48 -50 0 -50 0 0 50 c0 48 -1 50 -28 50 -40 0 -132 29 -132 41 0 9 21
101 24 106 1 1 26 -7 56 -17 103 -36 192 -21 198 34 5 37 -19 61 -85 86 -85
32 -128 57 -156 90 -73 86 -25 221 91 259 42 14 42 15 42 63 l0 48 45 0 45 0
0 -45z"/>
</g>
</svg>
